<?xml version="1.0" encoding="UTF-8"?><svg xmlns="http://www.w3.org/2000/svg" xmlns:xlink="http://www.w3.org/1999/xlink" width="375" zoomAndPan="magnify" viewBox="0 0 375 374.999991" height="374.999991" preserveAspectRatio="xMidYMid meet" version="1.0"><defs><clipPath id="clip-0"><path d="M 83 132 L 125 132 L 125 226 L 83 226 Z M 83 132 " clip-rule="nonzero"/></clipPath><clipPath id="clip-1"><path d="M 13.753906 187.496094 L 187.703125 13.546875 L 361.652344 187.496094 L 187.703125 361.445312 Z M 13.753906 187.496094 " clip-rule="nonzero"/></clipPath><clipPath id="clip-2"><path d="M 13.753906 187.496094 L 187.703125 13.546875 L 361.652344 187.496094 L 187.703125 361.445312 Z M 13.753906 187.496094 " clip-rule="nonzero"/></clipPath><clipPath id="clip-3"><path d="M 13.753906 187.496094 L 187.703125 13.546875 L 361.652344 187.496094 L 187.703125 361.445312 Z M 13.753906 187.496094 " clip-rule="nonzero"/></clipPath><clipPath id="clip-4"><path d="M 250 132 L 292 132 L 292 226 L 250 226 Z M 250 132 " clip-rule="nonzero"/></clipPath><clipPath id="clip-5"><path d="M 13.753906 187.496094 L 187.703125 13.546875 L 361.652344 187.496094 L 187.703125 361.445312 Z M 13.753906 187.496094 " clip-rule="nonzero"/></clipPath><clipPath id="clip-6"><path d="M 13.753906 187.496094 L 187.703125 13.546875 L 361.652344 187.496094 L 187.703125 361.445312 Z M 13.753906 187.496094 " clip-rule="nonzero"/></clipPath><clipPath id="clip-7"><path d="M 13.753906 187.496094 L 187.703125 13.546875 L 361.652344 187.496094 L 187.703125 361.445312 Z M 13.753906 187.496094 " clip-rule="nonzero"/></clipPath><clipPath id="clip-8"><path d="M 127 22 L 248 22 L 248 255 L 127 255 Z M 127 22 " clip-rule="nonzero"/></clipPath><clipPath id="clip-9"><path d="M 13.753906 187.496094 L 187.703125 13.546875 L 361.652344 187.496094 L 187.703125 361.445312 Z M 13.753906 187.496094 " clip-rule="nonzero"/></clipPath><clipPath id="clip-10"><path d="M 13.753906 187.496094 L 187.703125 13.546875 L 361.652344 187.496094 L 187.703125 361.445312 Z M 13.753906 187.496094 " clip-rule="nonzero"/></clipPath><clipPath id="clip-11"><path d="M 13.753906 187.496094 L 187.703125 13.546875 L 361.652344 187.496094 L 187.703125 361.445312 Z M 13.753906 187.496094 " clip-rule="nonzero"/></clipPath><clipPath id="clip-12"><path d="M 156 272 L 219 272 L 219 353 L 156 353 Z M 156 272 " clip-rule="nonzero"/></clipPath><clipPath id="clip-13"><path d="M 13.753906 187.496094 L 187.703125 13.546875 L 361.652344 187.496094 L 187.703125 361.445312 Z M 13.753906 187.496094 " clip-rule="nonzero"/></clipPath><clipPath id="clip-14"><path d="M 13.753906 187.496094 L 187.703125 13.546875 L 361.652344 187.496094 L 187.703125 361.445312 Z M 13.753906 187.496094 " clip-rule="nonzero"/></clipPath><clipPath id="clip-15"><path d="M 13.753906 187.496094 L 187.703125 13.546875 L 361.652344 187.496094 L 187.703125 361.445312 Z M 13.753906 187.496094 " clip-rule="nonzero"/></clipPath></defs><g clip-path="url(#clip-0)"><g clip-path="url(#clip-1)"><g clip-path="url(#clip-2)"><g clip-path="url(#clip-3)"><path fill="rgb(48.629761%, 30.198669%, 100%)" d="M 120.507812 132.5 C 94.054688 149.960938 80.230469 182.941406 84.769531 220.71875 C 84.84375 221.34375 85.027344 221.929688 85.316406 222.488281 C 85.609375 223.042969 85.988281 223.527344 86.457031 223.945312 C 86.925781 224.359375 87.453125 224.679688 88.039062 224.902344 C 88.625 225.125 89.230469 225.234375 89.859375 225.234375 L 124.347656 225.238281 C 120.71875 210.050781 118.582031 194.65625 117.9375 179.054688 C 117.289062 163.453125 118.148438 147.933594 120.507812 132.5 Z M 120.507812 132.5 " fill-opacity="1" fill-rule="nonzero"/></g></g></g></g><g clip-path="url(#clip-4)"><g clip-path="url(#clip-5)"><g clip-path="url(#clip-6)"><g clip-path="url(#clip-7)"><path fill="rgb(48.629761%, 30.198669%, 100%)" d="M 250.878906 225.238281 L 285.550781 225.234375 C 286.175781 225.234375 286.78125 225.125 287.367188 224.902344 C 287.953125 224.679688 288.480469 224.359375 288.949219 223.945312 C 289.417969 223.527344 289.800781 223.042969 290.089844 222.488281 C 290.378906 221.929688 290.5625 221.34375 290.636719 220.71875 C 295.199219 182.703125 281.207031 149.539062 254.425781 132.171875 C 256.816406 147.65625 257.714844 163.222656 257.117188 178.875 C 256.523438 194.53125 254.441406 209.984375 250.878906 225.238281 Z M 250.878906 225.238281 " fill-opacity="1" fill-rule="nonzero"/></g></g></g></g><g clip-path="url(#clip-8)"><g clip-path="url(#clip-9)"><g clip-path="url(#clip-10)"><g clip-path="url(#clip-11)"><path fill="rgb(8.628845%, 8.628845%, 8.628845%)" d="M 187.730469 22.941406 C 187 22.925781 186.300781 23.0625 185.628906 23.351562 C 184.957031 23.644531 184.378906 24.0625 183.890625 24.609375 C 89.636719 129.25 142.625 250.003906 143.167969 251.214844 C 143.371094 251.664062 143.636719 252.074219 143.957031 252.449219 C 144.277344 252.824219 144.648438 253.140625 145.0625 253.410156 C 145.476562 253.675781 145.917969 253.878906 146.390625 254.019531 C 146.863281 254.15625 147.347656 254.226562 147.839844 254.226562 L 227.566406 254.226562 C 228.246094 254.226562 228.898438 254.097656 229.527344 253.835938 C 230.15625 253.578125 230.710938 253.207031 231.191406 252.726562 C 231.640625 252.28125 231.992188 251.769531 232.25 251.191406 C 232.789062 249.976562 284.902344 129.25 191.535156 24.625 C 191.046875 24.089844 190.472656 23.675781 189.8125 23.378906 C 189.148438 23.085938 188.457031 22.941406 187.730469 22.941406 Z M 202.199219 180.25 C 201.722656 180.722656 201.226562 181.171875 200.707031 181.597656 C 200.1875 182.023438 199.652344 182.425781 199.09375 182.796875 C 198.535156 183.171875 197.960938 183.515625 197.367188 183.832031 C 196.773438 184.148438 196.167969 184.433594 195.546875 184.691406 C 194.929688 184.949219 194.296875 185.175781 193.652344 185.371094 C 193.011719 185.566406 192.359375 185.726562 191.703125 185.859375 C 191.042969 185.988281 190.378906 186.089844 189.710938 186.152344 C 189.042969 186.21875 188.375 186.253906 187.703125 186.253906 C 187.03125 186.253906 186.363281 186.21875 185.695312 186.152344 C 185.027344 186.089844 184.363281 185.988281 183.703125 185.859375 C 183.046875 185.726562 182.394531 185.566406 181.753906 185.371094 C 181.109375 185.175781 180.480469 184.949219 179.859375 184.691406 C 179.238281 184.433594 178.632812 184.148438 178.039062 183.832031 C 177.449219 183.515625 176.871094 183.171875 176.3125 182.796875 C 175.757812 182.425781 175.21875 182.023438 174.699219 181.597656 C 174.179688 181.171875 173.683594 180.722656 173.207031 180.25 C 172.734375 179.773438 172.28125 179.277344 171.855469 178.757812 C 171.429688 178.238281 171.03125 177.699219 170.65625 177.140625 C 170.285156 176.582031 169.941406 176.007812 169.625 175.417969 C 169.308594 174.824219 169.019531 174.21875 168.765625 173.597656 C 168.507812 172.976562 168.28125 172.347656 168.085938 171.703125 C 167.890625 171.0625 167.726562 170.410156 167.597656 169.753906 C 167.464844 169.09375 167.367188 168.429688 167.300781 167.761719 C 167.234375 167.09375 167.203125 166.425781 167.203125 165.753906 C 167.203125 165.082031 167.234375 164.410156 167.300781 163.742188 C 167.367188 163.074219 167.464844 162.410156 167.597656 161.753906 C 167.726562 161.09375 167.890625 160.445312 168.085938 159.800781 C 168.28125 159.160156 168.507812 158.527344 168.765625 157.90625 C 169.019531 157.289062 169.308594 156.679688 169.625 156.089844 C 169.941406 155.496094 170.285156 154.921875 170.65625 154.363281 C 171.03125 153.804688 171.429688 153.265625 171.855469 152.746094 C 172.28125 152.230469 172.734375 151.730469 173.207031 151.257812 C 173.683594 150.78125 174.179688 150.332031 174.699219 149.90625 C 175.21875 149.480469 175.757812 149.082031 176.3125 148.707031 C 176.871094 148.335938 177.449219 147.988281 178.039062 147.671875 C 178.632812 147.355469 179.238281 147.070312 179.859375 146.8125 C 180.480469 146.554688 181.109375 146.332031 181.753906 146.136719 C 182.394531 145.941406 183.046875 145.777344 183.703125 145.648438 C 184.363281 145.515625 185.027344 145.417969 185.695312 145.351562 C 186.363281 145.285156 187.03125 145.253906 187.703125 145.253906 C 188.375 145.253906 189.042969 145.285156 189.710938 145.351562 C 190.378906 145.417969 191.042969 145.515625 191.703125 145.648438 C 192.359375 145.777344 193.011719 145.941406 193.652344 146.136719 C 194.296875 146.332031 194.929688 146.554688 195.546875 146.8125 C 196.167969 147.070312 196.773438 147.355469 197.367188 147.671875 C 197.960938 147.988281 198.535156 148.335938 199.09375 148.707031 C 199.652344 149.082031 200.1875 149.480469 200.707031 149.90625 C 201.226562 150.332031 201.722656 150.78125 202.199219 151.257812 C 202.671875 151.730469 203.125 152.230469 203.550781 152.746094 C 203.976562 153.265625 204.375 153.804688 204.75 154.363281 C 205.121094 154.921875 205.464844 155.496094 205.78125 156.089844 C 206.097656 156.679688 206.386719 157.289062 206.644531 157.90625 C 206.898438 158.527344 207.125 159.160156 207.320312 159.800781 C 207.515625 160.445312 207.679688 161.09375 207.808594 161.753906 C 207.941406 162.410156 208.039062 163.074219 208.105469 163.742188 C 208.171875 164.410156 208.203125 165.082031 208.203125 165.753906 C 208.203125 166.425781 208.171875 167.09375 208.105469 167.761719 C 208.039062 168.429688 207.941406 169.09375 207.808594 169.753906 C 207.679688 170.410156 207.515625 171.0625 207.320312 171.703125 C 207.125 172.347656 206.898438 172.976562 206.644531 173.597656 C 206.386719 174.21875 206.097656 174.824219 205.78125 175.417969 C 205.464844 176.007812 205.121094 176.582031 204.75 177.140625 C 204.375 177.699219 203.976562 178.238281 203.550781 178.757812 C 203.125 179.277344 202.671875 179.773438 202.199219 180.25 Z M 202.199219 180.25 " fill-opacity="1" fill-rule="nonzero"/></g></g></g></g><g clip-path="url(#clip-12)"><g clip-path="url(#clip-13)"><g clip-path="url(#clip-14)"><g clip-path="url(#clip-15)"><path fill="rgb(48.629761%, 30.198669%, 100%)" d="M 187.703125 272.710938 C 186.695312 272.710938 185.691406 272.761719 184.691406 272.859375 C 183.6875 272.960938 182.695312 273.109375 181.707031 273.304688 C 180.71875 273.503906 179.742188 273.746094 178.78125 274.039062 C 177.816406 274.332031 176.871094 274.671875 175.941406 275.058594 C 175.011719 275.445312 174.101562 275.875 173.214844 276.351562 C 172.324219 276.824219 171.464844 277.34375 170.625 277.902344 C 169.789062 278.460938 168.980469 279.0625 168.203125 279.699219 C 167.425781 280.339844 166.679688 281.015625 165.96875 281.726562 C 165.253906 282.4375 164.582031 283.183594 163.941406 283.960938 C 163.300781 284.738281 162.703125 285.546875 162.144531 286.382812 C 161.585938 287.222656 161.066406 288.082031 160.589844 288.972656 C 160.117188 289.859375 159.6875 290.769531 159.300781 291.699219 C 158.914062 292.628906 158.574219 293.574219 158.28125 294.539062 C 157.988281 295.5 157.746094 296.476562 157.546875 297.464844 C 157.351562 298.453125 157.203125 299.445312 157.101562 300.449219 C 157.003906 301.449219 156.953125 302.453125 156.949219 303.460938 C 156.945312 319.089844 181.089844 347.167969 183.835938 350.328125 C 184.066406 350.59375 184.324219 350.832031 184.605469 351.042969 C 184.882812 351.257812 185.183594 351.4375 185.5 351.589844 C 185.820312 351.738281 186.148438 351.855469 186.488281 351.9375 C 186.832031 352.019531 187.179688 352.066406 187.527344 352.078125 C 187.878906 352.089844 188.230469 352.066406 188.574219 352.003906 C 188.921875 351.945312 189.257812 351.851562 189.585938 351.722656 C 189.910156 351.589844 190.222656 351.429688 190.515625 351.238281 C 190.808594 351.042969 191.078125 350.820312 191.328125 350.574219 L 191.570312 350.328125 C 194.320312 347.171875 218.460938 319.089844 218.464844 303.46875 C 218.460938 302.460938 218.414062 301.457031 218.3125 300.453125 C 218.214844 299.453125 218.066406 298.457031 217.867188 297.46875 C 217.671875 296.480469 217.425781 295.507812 217.132812 294.542969 C 216.839844 293.578125 216.5 292.632812 216.113281 291.703125 C 215.730469 290.769531 215.296875 289.863281 214.824219 288.972656 C 214.347656 288.085938 213.832031 287.222656 213.269531 286.386719 C 212.710938 285.546875 212.113281 284.742188 211.472656 283.960938 C 210.835938 283.183594 210.160156 282.4375 209.445312 281.726562 C 208.734375 281.015625 207.988281 280.339844 207.210938 279.699219 C 206.433594 279.058594 205.625 278.460938 204.785156 277.902344 C 203.949219 277.339844 203.085938 276.824219 202.199219 276.347656 C 201.308594 275.875 200.402344 275.441406 199.46875 275.058594 C 198.539062 274.671875 197.59375 274.332031 196.628906 274.039062 C 195.664062 273.746094 194.691406 273.5 193.703125 273.304688 C 192.714844 273.105469 191.71875 272.957031 190.71875 272.859375 C 189.714844 272.761719 188.710938 272.710938 187.703125 272.710938 Z M 187.703125 272.710938 " fill-opacity="1" fill-rule="nonzero"/></g></g></g></g></svg>